<?xml version="1.0" standalone="no"?>
<!DOCTYPE svg PUBLIC "-//W3C//DTD SVG 20010904//EN"
 "http://www.w3.org/TR/2001/REC-SVG-20010904/DTD/svg10.dtd">
<svg version="1.0" xmlns="http://www.w3.org/2000/svg"
 width="960.000000pt" height="960.000000pt" viewBox="0 0 960.000000 960.000000"
 preserveAspectRatio="xMidYMid meet">
<metadata>
Created by potrace 1.15, written by Peter Selinger 2001-2017
</metadata>
<g transform="translate(0.000000,960.000000) scale(0.100000,-0.100000)"
fill="#000000" stroke="none">
<path d="M5215 9394 c-564 -18 -1179 -141 -1705 -340 -197 -75 -574 -264 -744
-372 -578 -370 -999 -825 -1311 -1417 -33 -63 -86 -144 -125 -190 -669 -798
-940 -1681 -815 -2650 72 -561 281 -1090 620 -1575 88 -124 109 -153 235 -305
37 -44 101 -142 143 -217 459 -824 1167 -1401 2101 -1712 402 -134 813 -211
1261 -236 214 -13 342 -7 387 16 77 40 75 172 -3 211 -13 7 -99 33 -190 58
-582 159 -1287 442 -1812 727 -595 322 -1049 650 -1449 1048 -174 173 -172
169 -278 435 -190 474 -293 987 -336 1667 l-6 108 38 0 c22 0 260 7 529 15
270 8 522 15 561 15 l71 0 7 -102 c9 -135 47 -353 90 -520 312 -1203 1290
-2135 2508 -2387 244 -51 395 -65 673 -65 261 1 405 14 615 55 914 180 1689
716 2177 1508 289 468 456 1006 480 1549 l6 142 71 1 c329 7 480 15 484 27 3
9 -18 12 -81 12 -46 0 -172 3 -280 7 l-197 6 0 83 c0 174 -41 465 -96 687
-199 792 -686 1481 -1369 1935 -968 644 -2205 726 -3250 217 -344 -167 -612
-360 -891 -639 -248 -249 -440 -515 -600 -831 -209 -413 -304 -758 -350 -1269
l-6 -68 -461 6 c-254 3 -522 9 -596 12 l-134 7 7 141 c32 638 150 1198 354
1683 l57 134 135 138 c195 199 327 316 555 492 751 582 1859 1123 2960 1444
121 36 234 72 252 81 34 18 63 66 63 106 0 30 -32 83 -62 101 -26 17 -151 25
-293 21z m654 -1585 c1078 -77 2020 -735 2468 -1724 149 -329 253 -776 253
-1091 l0 -74 -218 0 -219 0 -12 129 c-26 293 -97 545 -225 806 -324 659 -920
1113 -1646 1251 -112 22 -174 27 -362 31 l-228 6 0 -1088 0 -1088 -352 7
c-194 3 -603 11 -908 16 -1130 20 -1685 31 -1688 35 -6 6 19 238 39 358 162
966 826 1809 1729 2195 441 189 895 265 1369 231z m296 -1040 c370 -55 735
-234 1023 -503 281 -262 497 -646 572 -1016 22 -109 45 -308 37 -316 -3 -3
-243 -1 -533 5 -291 6 -688 13 -881 17 l-353 7 0 914 0 914 33 -6 c17 -3 64
-10 102 -16z m2425 -1996 c0 -108 -25 -323 -56 -472 -215 -1069 -1013 -1934
-2064 -2236 -141 -40 -278 -69 -444 -92 -169 -24 -565 -24 -732 0 -358 50
-619 129 -929 282 -567 279 -1018 720 -1306 1280 -183 354 -290 721 -322 1102
l-4 51 131 6 c72 3 223 8 336 11 429 11 1336 36 1853 50 297 8 559 15 583 15
l44 0 0 -1111 0 -1112 208 6 c377 11 667 80 981 235 644 317 1104 920 1240
1624 23 118 41 283 41 369 l0 58 128 4 c70 1 169 4 220 5 l92 2 0 -77z m-790
-2 c0 -33 -7 -113 -15 -178 -112 -851 -772 -1531 -1620 -1668 -49 -8 -100 -15
-112 -15 l-23 0 0 934 0 934 133 6 c72 3 328 11 567 17 239 6 543 14 675 18
132 4 275 9 318 9 l77 2 0 -59z"/>
</g>
</svg>
